<?xml version="1.0" standalone="no"?>
<!DOCTYPE svg PUBLIC "-//W3C//DTD SVG 20010904//EN"
 "http://www.w3.org/TR/2001/REC-SVG-20010904/DTD/svg10.dtd">
<svg version="1.0" xmlns="http://www.w3.org/2000/svg"
 width="371.000000pt" height="371.000000pt" viewBox="0 0 371.000000 371.000000"
 preserveAspectRatio="xMidYMid meet">
<metadata>
Created by potrace 1.14, written by Peter Selinger 2001-2017
</metadata>
<g transform="translate(0.000000,371.000000) scale(0.100000,-0.100000)"
fill="#000000" stroke="none">
<path d="M1820 3470 c-580 -46 -1072 -383 -1339 -917 l-41 -83 64 0 64 0 42
78 c160 296 381 508 685 657 124 61 223 96 340 120 504 103 1021 -52 1384
-416 114 -114 218 -259 282 -391 l23 -48 63 0 c35 0 63 3 63 6 0 4 -27 59 -60
123 -221 427 -629 737 -1106 841 -81 17 -320 43 -359 38 -5 0 -53 -4 -105 -8z"/>
<path d="M1795 3249 c-211 -21 -452 -109 -635 -232 -153 -103 -319 -277 -412
-433 -62 -103 -65 -114 -40 -114 14 0 32 21 62 73 204 344 557 589 945 653
128 21 341 21 466 0 178 -29 361 -103 529 -214 156 -103 337 -298 423 -453 24
-45 37 -59 55 -59 12 0 22 3 22 6 0 3 -23 44 -51 91 -236 390 -633 640 -1084
683 -123 11 -151 11 -280 -1z"/>
<path d="M1641 2899 c-18 -6 -50 -21 -71 -35 -39 -26 -90 -107 -90 -142 0 -16
-10 -24 -42 -33 -59 -15 -106 -45 -123 -79 -21 -40 -19 -144 2 -180 18 -31 71
-64 120 -75 27 -5 32 -12 38 -46 4 -22 4 -62 0 -89 -4 -28 -4 -50 -1 -50 4 0
35 10 69 21 74 26 240 31 325 10 29 -7 55 -11 58 -9 2 3 -20 18 -48 34 -50 28
-59 29 -173 29 -66 0 -132 -3 -146 -7 -26 -8 -27 -6 -34 49 -10 82 -20 103
-50 103 -44 0 -105 31 -120 61 -34 64 -7 142 60 173 46 22 61 16 69 -26 4 -18
14 -42 23 -53 14 -18 15 -18 9 -2 -36 106 5 226 97 277 34 20 57 24 117 24
127 1 197 -55 221 -174 10 -54 12 -56 40 -52 47 7 124 -17 154 -48 35 -37 44
-103 20 -149 -18 -36 -66 -61 -114 -61 -29 0 -30 2 -21 26 12 30 13 64 3 64
-5 0 -16 -19 -27 -41 -10 -23 -35 -51 -57 -66 -21 -14 -39 -28 -39 -30 0 -3
16 -2 35 1 l35 7 0 -43 c0 -24 5 -50 10 -58 8 -12 10 -9 10 11 0 14 5 39 10
55 9 26 15 29 60 31 94 2 151 57 158 150 7 108 -49 175 -167 198 -53 11 -55
12 -67 56 -17 56 -73 123 -128 151 -47 24 -170 34 -225 17z"/>
<path d="M2688 2154 c-16 -8 -28 -19 -28 -25 0 -6 7 -6 19 1 50 26 102 1 132
-64 26 -58 25 -62 -24 -58 -36 3 -49 -1 -76 -23 -45 -39 -61 -75 -61 -143 0
-45 6 -67 23 -93 64 -97 198 -84 242 23 20 50 24 181 6 244 -33 121 -144 187
-233 138z m128 -188 c17 -13 19 -27 19 -114 0 -104 -10 -132 -46 -132 -29 0
-41 36 -41 126 0 61 5 91 16 109 19 29 25 30 52 11z"/>
<path d="M560 2134 c-76 -33 -109 -98 -76 -149 19 -29 66 -34 90 -9 30 29 9
72 -26 53 -24 -13 -38 -4 -38 27 0 29 50 64 93 64 l27 0 0 -210 0 -210 25 -12
c19 -8 31 -8 50 0 l25 12 0 213 c0 152 -3 216 -12 225 -17 17 -116 14 -158 -4z"/>
<path d="M925 2136 c-77 -35 -118 -123 -119 -251 0 -109 21 -178 67 -223 69
-66 170 -70 235 -10 33 32 27 43 -12 19 -37 -23 -86 -27 -118 -10 -72 38 -90
315 -27 418 40 66 99 63 99 -6 0 -22 6 -36 16 -40 45 -17 72 57 34 92 -27 25
-132 31 -175 11z"/>
<path d="M1230 2130 c-66 -23 -100 -58 -100 -106 0 -36 28 -74 56 -74 39 0 69
35 58 65 -5 11 -15 14 -39 9 -39 -7 -49 5 -34 40 13 27 63 56 98 56 21 0 22
-4 19 -92 -3 -88 -4 -93 -25 -96 -13 -2 -23 -10 -23 -17 0 -7 10 -15 23 -17
20 -3 22 -9 27 -84 6 -93 15 -109 73 -125 51 -13 109 -5 159 23 47 27 54 57 7
33 -38 -20 -102 -23 -123 -6 -12 10 -16 32 -16 87 l0 73 62 3 c38 2 63 8 66
16 3 9 -14 12 -62 12 l-66 0 0 100 0 100 33 0 c17 -1 50 -7 72 -15 42 -15 62
-8 52 19 -10 25 -243 22 -317 -4z"/>
<path d="M1670 2130 c-66 -23 -100 -58 -100 -106 0 -36 28 -74 56 -74 39 0 69
35 58 65 -5 11 -15 14 -39 9 -39 -7 -49 5 -34 40 13 27 63 56 98 56 21 0 22
-4 19 -92 -3 -88 -4 -93 -25 -96 -13 -2 -23 -10 -23 -17 0 -7 10 -15 23 -17
21 -3 22 -8 25 -98 3 -99 12 -120 53 -120 39 0 49 27 49 126 l0 94 60 0 c47 0
60 3 60 15 0 12 -13 15 -60 15 l-60 0 0 100 0 100 33 0 c17 -1 50 -7 72 -15
42 -15 62 -8 52 19 -10 25 -243 22 -317 -4z"/>
<path d="M2062 1990 c-47 -29 -76 -98 -69 -161 9 -70 32 -108 80 -130 52 -23
71 -23 123 0 74 33 107 150 66 231 -37 74 -131 102 -200 60z m104 -35 c24 -37
17 -211 -9 -230 -45 -32 -72 29 -66 147 6 102 38 139 75 83z"/>
<path d="M2389 1987 c-67 -45 -89 -148 -49 -227 27 -52 61 -73 120 -74 60 -1
96 23 128 84 27 54 28 101 2 157 -35 79 -130 108 -201 60z m108 -37 c16 -31
17 -156 2 -198 -13 -37 -31 -45 -56 -27 -26 19 -33 193 -8 231 20 30 45 28 62
-6z"/>
<path d="M3006 1989 c-46 -36 -35 -89 35 -166 40 -44 48 -70 27 -91 -15 -15
-64 -16 -73 -2 -9 14 -28 13 -23 -2 6 -16 69 -48 96 -48 40 0 89 30 102 61 18
43 5 75 -56 139 -57 60 -66 83 -36 99 24 13 40 1 38 -29 -2 -37 38 -35 42 2 6
55 -97 80 -152 37z"/>
<path d="M3422 1588 c-6 -6 -12 -26 -12 -44 0 -109 -99 -240 -214 -283 -247
-92 -630 -92 -1483 -1 -548 59 -978 64 -1266 14 -151 -26 -387 -120 -387 -154
0 -15 12 -12 72 14 77 34 206 72 318 93 81 15 151 18 480 17 378 0 393 -1 790
-42 583 -59 672 -65 1000 -66 334 0 429 13 554 74 72 36 151 111 185 178 49
96 49 204 0 210 -13 2 -30 -3 -37 -10z"/>
<path d="M2610 1536 c0 -9 5 -16 10 -16 6 0 10 4 10 9 0 6 -4 13 -10 16 -5 3
-10 -1 -10 -9z"/>
<path d="M2734 1518 c-12 -5 -27 -21 -35 -34 -7 -13 -16 -24 -21 -24 -23 0
-157 -70 -185 -97 -32 -30 -44 -63 -23 -63 5 0 33 18 62 40 29 22 78 53 108
69 48 25 63 28 115 24 51 -4 64 -2 88 17 29 23 35 48 15 68 -14 14 -95 15
-124 0z m91 -48 c-3 -5 -12 -10 -18 -10 -7 0 -6 4 3 10 19 12 23 12 15 0z
m-38 -16 c-3 -3 -12 -4 -19 -1 -8 3 -5 6 6 6 11 1 17 -2 13 -5z"/>
<path d="M2912 1503 c4 -21 33 -25 33 -3 0 8 -8 16 -18 18 -14 3 -18 -1 -15
-15z"/>
<path d="M3551 1472 c-5 -9 -12 -35 -16 -57 -18 -94 -97 -194 -191 -240 -66
-32 -25 -32 43 0 75 34 118 71 163 138 47 70 66 128 50 157 -13 25 -36 26 -49
2z"/>
<path d="M1730 1461 c0 -5 -10 -11 -22 -13 -17 -2 -23 -10 -23 -28 0 -20 6
-26 28 -28 26 -3 27 -1 27 37 0 23 -2 41 -5 41 -3 0 -5 -4 -5 -9z m-2 -44 c2
-12 -3 -17 -17 -17 -15 0 -21 6 -21 21 0 25 33 22 38 -4z"/>
<path d="M1830 1455 c-19 -22 -8 -25 13 -3 9 10 13 18 8 18 -5 0 -14 -7 -21
-15z"/>
<path d="M2989 1451 c-26 -10 -57 -26 -70 -35 -13 -9 -39 -16 -57 -16 -34 0
-80 -18 -116 -45 -29 -22 -13 -29 23 -10 42 21 39 12 -4 -15 -41 -25 -44 -37
-11 -46 31 -7 98 27 125 64 22 31 131 73 224 87 65 9 56 29 -14 32 -34 2 -71
-4 -100 -16z m-198 -141 c-22 -19 -41 -26 -41 -15 0 5 51 34 60 34 3 0 -6 -9
-19 -19z"/>
<path d="M1087 1447 c-3 -8 1 -14 8 -14 7 0 11 6 8 14 -3 7 -6 13 -8 13 -2 0
-5 -6 -8 -13z"/>
<path d="M1136 1445 c-9 -26 -7 -32 5 -12 6 10 9 21 6 23 -2 3 -7 -2 -11 -11z"/>
<path d="M1416 1451 c-4 -7 -5 -15 -2 -18 9 -9 19 4 14 18 -4 11 -6 11 -12 0z"/>
<path d="M1881 1443 c7 -12 15 -20 18 -17 3 2 -3 12 -13 22 -17 16 -18 16 -5
-5z"/>
<path d="M2038 1455 c-6 -7 3 -65 11 -65 7 0 7 58 -1 65 -2 3 -7 3 -10 0z"/>
<path d="M1513 1444 c24 -7 22 -44 -2 -44 -11 0 -22 7 -24 15 -4 11 -4 10 -3
-2 1 -12 11 -19 29 -21 26 -3 28 -1 25 25 -2 19 -9 28 -23 30 -16 1 -16 1 -2
-3z"/>
<path d="M1584 1436 c-3 -8 -4 -23 -1 -33 3 -11 5 -8 6 10 1 36 32 34 42 -3 6
-21 7 -22 8 -4 2 37 -43 61 -55 30z"/>
<path d="M1051 1434 c1 -21 16 -47 21 -38 4 5 0 18 -8 29 -8 10 -14 15 -13 9z"/>
<path d="M1194 1425 c-8 -19 3 -35 24 -35 16 1 16 1 0 11 -10 5 -15 16 -12 24
4 8 3 15 0 15 -4 0 -9 -7 -12 -15z"/>
<path d="M1944 1415 c1 -13 8 -20 24 -21 17 -1 18 -1 3 3 -11 2 -22 12 -24 21
-3 12 -4 11 -3 -3z"/>
<path d="M1110 1411 c0 -5 5 -13 10 -16 6 -3 10 -2 10 4 0 5 -4 13 -10 16 -5
3 -10 2 -10 -4z"/>
<path d="M1823 1410 c4 -18 45 -26 59 -12 6 6 0 8 -17 4 -17 -3 -31 1 -37 9
-8 12 -9 11 -5 -1z"/>
<path d="M1345 1400 c-19 -8 -19 -9 3 -9 12 -1 22 4 22 9 0 6 -1 10 -2 9 -2 0
-12 -4 -23 -9z"/>
<path d="M1420 1400 c0 -5 5 -10 11 -10 5 0 7 5 4 10 -3 6 -8 10 -11 10 -2 0
-4 -4 -4 -10z"/>
<path d="M496 1384 c-80 -15 -273 -75 -304 -95 -19 -12 -21 -12 125 26 114 30
225 45 393 53 76 4 130 11 130 17 0 16 -254 15 -344 -1z"/>
<path d="M2680 1386 c0 -9 5 -16 10 -16 6 0 10 4 10 9 0 6 -4 13 -10 16 -5 3
-10 -1 -10 -9z"/>
<path d="M500 1103 c0 -18 103 -178 163 -255 603 -772 1742 -843 2432 -153 50
49 112 118 139 153 62 81 156 231 156 249 0 9 -17 13 -63 13 -62 0 -63 0 -82
-37 -60 -114 -219 -294 -350 -400 -276 -221 -591 -332 -947 -333 -338 0 -634
98 -907 300 -142 105 -300 280 -384 423 l-28 47 -64 0 c-36 0 -65 -3 -65 -7z"/>
<path d="M750 1104 c0 -22 136 -187 222 -269 203 -195 435 -317 706 -372 125
-25 436 -25 547 0 270 61 493 176 683 352 97 91 232 258 232 289 0 3 -8 6 -18
6 -11 0 -34 -23 -58 -57 -54 -80 -195 -225 -284 -293 -259 -196 -569 -293
-894 -277 -420 20 -788 214 -1040 550 -37 48 -65 77 -77 77 -11 0 -19 -3 -19
-6z"/>
<path d="M1918 1048 c-20 -38 -29 -44 -66 -49 -23 -3 -45 -8 -49 -12 -4 -4 10
-24 29 -45 35 -35 36 -39 28 -82 -4 -25 -6 -47 -4 -50 3 -2 25 6 48 19 l44 23
40 -21 c23 -12 44 -21 48 -21 3 0 3 24 0 53 -7 50 -6 53 29 87 31 30 33 35 18
42 -10 3 -33 7 -51 7 -28 1 -35 7 -54 46 -12 25 -25 45 -29 45 -4 0 -18 -19
-31 -42z"/>
<path d="M1595 931 c-7 -34 -19 -46 -57 -55 -36 -8 -35 -16 2 -41 26 -17 30
-26 30 -63 l0 -43 31 22 c28 20 37 21 71 12 l39 -10 -7 43 c-5 36 -2 48 16 71
l22 28 -41 3 c-32 2 -46 10 -63 33 -27 36 -35 36 -43 0z"/>
<path d="M2259 930 c-18 -24 -30 -30 -61 -30 -21 0 -38 -2 -38 -5 0 -3 10 -19
21 -35 21 -27 21 -46 3 -94 -5 -14 -2 -14 33 -2 36 13 41 12 73 -11 l35 -24 3
43 c3 33 10 48 34 68 l31 26 -41 12 c-33 10 -42 18 -47 42 -9 42 -21 45 -46
10z"/>
</g>
</svg>
