<svg xmlns="http://www.w3.org/2000/svg" width="500" height="500" viewBox="0 0 500 500"
    xmlns:xlink="http://www.w3.org/1999/xlink">
    <path
        d="M 432.2 371.9 c -2.5 -2.4 -5.1 -15.8 -8.2 -17.1 c 2.4 5.3 0.7 6.7 0.6 12.4 a 39.1 39.1 0 0 1 -1.1 9.7 H 369.4 V 334.8 a 28.8 28.8 0 0 1 28.8 -28.8 a 17.2 17.2 0 0 1 4.3 0.6 A 27.4 27.4 0 0 1 421.9 326 C 426 341.1 432.6 366.1 432.2 371.9 Z"
        transform="translate(-152.9,-225.9)" fill="#2f2e41" />
    <path d="M 372.6 423.8 l 0 -32.9 L 353.3 392.6 l 6.8 20.7 l -3.2 52.1 a 8.2 8.2 0 1 0 9.9 6.9 Z"
        transform="translate(-152.9,-225.9)" fill="#ffb6b6" />
    <polygon points="257.7,432.8 265.6,432.8 269.3,402.7 257.7,402.7 257.7,432.8" fill="#ffb6b6" />
    <path transform="translate(-152.9,-225.9)"
        d="M 408 654.8 l 12.3 -0.7 v 5.3 l 11.7 8.1 a 3.3 3.3 0 0 1 -1.9 6 H 415.5 L 412.9 668.2 l -1 5.2 h -5.5 Z"
        fill="#2f2e41" />
    <polygon points="212.6,432.8 220.4,432.8 224.1,402.7 212.6,402.7 212.6,432.8" fill="#ffb6b6" />
    <path transform="translate(-152.9,-225.9)"
        d="M 362.9 654.8 l 12.3 -0.7 v 5.3 l 11.7 8.1 a 3.3 3.3 0 0 1 -1.9 6 H 370.4 l -2.5 -5.2 l -1 5.2 H 361.3 Z"
        fill="#2f2e41" />
    <path
        d="M 403.7 355.4 l -16.2 0.3 l -11.4 12 l -9.1 1.3 a 18.3 18.3 0 0 0 -15.6 16.9 v 0 l 1.6 8.7 h 9.5 l 5.5 32.3 c -2.1 5.5 -2.3 9.8 2.1 11.4 l 13.6 25.7 L 424 446.1 c 2 -3.5 2.7 -7 0.6 -10.5 l 2.9 -49.5 h 9.7 v 0 c 0 -9.2 -3.1 -17 -12.3 -18.1 a 108.7 108.7 0 0 0 -11 -0.6 Z"
        transform="translate(-152.9,-225.9)" fill="#e6e6e6" />
    <path
        d="M 424 446.1 s -39.3 7 -53.9 -7.6 c 0 0 -1.5 2.5 -3.7 6.7 c -0.6 1.2 -1.9 2 -2.6 3.5 c -0.7 1.3 -2.4 2.9 -3.2 4.4 c -0.6 1.2 0.4 2.8 -0.3 4.1 c -7.5 15.7 -16.2 37.8 -14.3 52.3 c 1.2 9.4 3.7 31.3 6.3 54.8 c 0.2 1.8 -1.5 4.2 -1.2 6 c 0.2 1.7 2.3 3 2.4 4.7 c 0.1 1.2 -1.3 2.3 -1.2 3.5 c 0.1 1.3 1.9 2.5 2 3.8 c 3.6 32.5 6.9 62.8 6.9 62.8 h 18.4 l 3.5 -69.2 l -2.8 -25.2 l 6.7 -51 l 9.2 48.5 l 1.2 27.3 l 9.7 71 H 424 v -68.7 l 1.3 -3.6 l -1.3 -4.6 l 1.3 -4.9 l -1.3 -5.4 Z"
        transform="translate(-152.9,-225.9)" fill="#2f2e41" />
    <path d="M 408.6 346.1 a 18.3 18.3 0 1 1 3.2 -15.3 c 0.1 0.2 0.1 0.4 0.1 0.7 A 18.3 18.3 0 0 1 408.6 346.1 Z"
        transform="translate(-152.9,-225.9)" fill="#ffb6b6" />
    <path
        d="M 404.8 335.6 a 9.6 9.6 0 0 0 -2.8 -5.1 a 13.1 13.1 0 0 1 -0.8 5.5 a 25.4 25.4 0 0 1 -14 -2.8 c -3.2 -2.2 -7.3 -2 -12.1 0 a 17.8 17.8 0 0 1 17.8 -17.8 h 3.2 a 17.8 17.8 0 0 1 17.8 17.8 A 52.9 52.9 0 0 1 404.8 335.6 Z"
        transform="translate(-152.9,-225.9)" fill="#2f2e41" />
    <circle cx="113.2" cy="285" r="51" fill="#f0f0f0" />
    <path transform="translate(-152.9,-225.9)"
        d="M 397 496.3 H 263.2 a 7.2 7.2 0 0 1 -7.2 -7.2 v -65.2 a 7.2 7.2 0 0 1 7.2 -7.2 H 397 a 7.2 7.2 0 0 1 7.2 7.2 v 65.2 A 7.2 7.2 0 0 1 397 496.3 Z"
        fill="#ffffff" />
    <path transform="translate(-152.9,-225.9)"
        d="M 397 496.3 H 263.2 a 7.2 7.2 0 0 1 -7.2 -7.2 v -65.2 a 7.2 7.2 0 0 1 7.2 -7.2 H 397 a 7.2 7.2 0 0 1 7.2 7.2 v 65.2 A 7.2 7.2 0 0 1 397 496.3 Z M 263.2 418.7 a 5.2 5.2 0 0 0 -5.2 5.2 v 65.2 a 5.2 5.2 0 0 0 5.2 5.2 H 397 a 5.2 5.2 0 0 0 5.2 -5.2 v -65.2 a 5.2 5.2 0 0 0 -5.2 -5.2 Z"
        fill="#3f3d56" />
    <path transform="translate(-152.9,-225.9)"
        d="M 337.2 486.6 c -26.4 0 -53.9 -0.3 -64.2 -0.4 a 5.2 5.2 0 0 1 -5.1 -5.2 V 427.1 a 1.8 1.8 0 0 1 1.8 -1.8 H 390.3 a 1.8 1.8 0 0 1 1.8 1.8 v 36.6 a 22.8 22.8 0 0 1 -22.5 22.8 C 360.1 486.6 348.8 486.6 337.2 486.6 Z"
        fill="#6c63ff" />
    <path transform="matrix(1,0,0,1,-152.9,-225.9)"
        d="M 383.1 460.3 H 274.3 a 4.4 4.4 0 0 1 -4.2 -2.9 l -12.3 -34.6 a 4.4 4.4 0 0 1 4.2 -5.9 l 136.1 -0.2 a 4.4 4.4 0 0 1 4.4 5.2 l 0.1 0 l -0.4 0.9 l 0 0 l -14.9 34.8 A 4.4 4.4 0 0 1 383.1 460.3 Z m 14.9 -41.6 l -136.1 0.2 a 2.4 2.4 0 0 0 -2.3 3.2 l 12.3 34.6 a 2.4 2.4 0 0 0 2.3 1.6 H 383.1 a 2.4 2.4 0 0 0 2.2 -1.5 l 14.9 -34.8 l 0.7 0.3 l -0.7 -0.3 a 2.4 2.4 0 0 0 -2.2 -3.4 Z"
        fill="#3f3d56" />
    <circle cx="177" cy="233.5" r="8.5" fill="#ffffff" />
    <path d="M 436.6 416.2 l 0 -32.9 l -19.3 1.7 l 6.8 20.7 l -24.7 37.5 a 8.2 8.2 0 1 0 9.9 6.9 Z"
        transform="translate(-152.9,-225.9)" fill="#ffb6b6" />
</svg>